<svg width="922" height="447" viewBox="0 0 922 447" fill="none" xmlns="http://www.w3.org/2000/svg">
<rect width="922" height="447" rx="109" fill="#375171"/>
<path d="M237.579 76.7236L364.313 182.539L369.183 186.605L401 213.17L400.994 213.177C403.762 215.389 405.591 218.481 406.085 221.795C406.585 225.158 405.67 228.474 403.541 231.012C401.411 233.55 398.241 235.103 394.728 235.329C391.287 235.551 387.792 234.482 384.983 232.353L384.977 232.36L368.384 218.506V345.445C368.384 362.842 354.281 376.945 336.884 376.945H122.249C104.852 376.945 90.7488 362.842 90.7486 345.445V219.771L75.8726 232.32L75.856 232.301C73.135 234.588 69.786 235.857 66.4752 235.839C62.996 235.82 59.8443 234.384 57.7144 231.846C55.5846 229.307 54.6507 225.875 55.1177 222.304C55.5596 218.926 57.2206 215.686 59.7603 213.22L59.7535 213.211L59.8892 213.096C59.993 212.997 60.0981 212.9 60.2047 212.804L60.2173 212.818L96.065 182.58L98.2115 180.769V136.527H89.2115C85.8978 136.527 83.2115 133.841 83.2115 130.527V117.527C83.2115 114.214 85.8978 111.527 89.2115 111.527H178.211C178.827 111.527 179.422 111.62 179.981 111.792L221.507 76.7637L229.526 70L237.579 76.7236ZM115.749 198.683V345.445C115.749 349.035 118.659 351.945 122.249 351.945H336.884C340.474 351.945 343.384 349.035 343.384 345.445V197.633L229.608 102.637L115.749 198.683Z" fill="white"/>
<rect x="183.293" y="203.445" width="41.6891" height="40.2499" rx="6" fill="url(#paint0_linear_26_24)"/>
<rect x="183.293" y="251.745" width="41.6891" height="40.2499" rx="6" fill="url(#paint1_linear_26_24)"/>
<rect x="235.821" y="203.445" width="41.6891" height="40.2499" rx="6" fill="url(#paint2_linear_26_24)"/>
<rect x="235.821" y="251.745" width="41.6891" height="40.2499" rx="6" fill="url(#paint3_linear_26_24)"/>
<path d="M574.08 353C573.141 353 572.416 352.744 571.904 352.232C571.392 351.635 571.136 350.909 571.136 350.056V266.472C571.136 265.533 571.392 264.808 571.904 264.296C572.416 263.699 573.141 263.4 574.08 263.4H609.152C615.552 263.4 620.757 264.467 624.768 266.6C628.864 268.648 631.851 271.464 633.728 275.048C635.691 278.632 636.672 282.643 636.672 287.08C636.672 290.579 636.075 293.608 634.88 296.168C633.771 298.643 632.363 300.691 630.656 302.312C628.949 303.848 627.285 305.043 625.664 305.896C628.992 307.517 631.936 310.163 634.496 313.832C637.141 317.501 638.464 321.939 638.464 327.144C638.464 331.837 637.397 336.147 635.264 340.072C633.131 343.997 629.931 347.155 625.664 349.544C621.483 351.848 616.277 353 610.048 353H574.08ZM583.68 342.632H608.384C613.931 342.632 618.197 341.139 621.184 338.152C624.171 335.165 625.664 331.496 625.664 327.144C625.664 322.621 624.171 318.909 621.184 316.008C618.197 313.021 613.931 311.528 608.384 311.528H583.68V342.632ZM583.68 301.288H607.232C612.693 301.288 616.832 300.051 619.648 297.576C622.464 295.016 623.872 291.56 623.872 287.208C623.872 282.856 622.464 279.528 619.648 277.224C616.832 274.92 612.693 273.768 607.232 273.768H583.68V301.288ZM681.468 354.28C672.679 354.28 665.681 351.592 660.476 346.216C655.271 340.755 652.412 333.331 651.9 323.944C651.815 322.835 651.772 321.427 651.772 319.72C651.772 317.928 651.815 316.477 651.9 315.368C652.241 309.309 653.649 304.019 656.124 299.496C658.599 294.888 661.969 291.347 666.236 288.872C670.588 286.397 675.665 285.16 681.468 285.16C687.953 285.16 693.372 286.525 697.724 289.256C702.161 291.987 705.532 295.869 707.836 300.904C710.14 305.939 711.292 311.827 711.292 318.568V320.744C711.292 321.683 710.993 322.408 710.396 322.92C709.884 323.432 709.201 323.688 708.348 323.688H664.06C664.06 323.773 664.06 323.944 664.06 324.2C664.06 324.456 664.06 324.669 664.06 324.84C664.231 328.339 664.999 331.624 666.364 334.696C667.729 337.683 669.692 340.115 672.252 341.992C674.812 343.869 677.884 344.808 681.468 344.808C684.54 344.808 687.1 344.339 689.148 343.4C691.196 342.461 692.86 341.437 694.14 340.328C695.42 339.133 696.273 338.237 696.7 337.64C697.468 336.531 698.065 335.891 698.492 335.72C698.919 335.464 699.601 335.336 700.54 335.336H706.684C707.537 335.336 708.22 335.592 708.732 336.104C709.329 336.531 709.585 337.171 709.5 338.024C709.415 339.304 708.732 340.883 707.452 342.76C706.172 344.552 704.337 346.344 701.948 348.136C699.559 349.928 696.657 351.421 693.244 352.616C689.831 353.725 685.905 354.28 681.468 354.28ZM664.06 314.856H699.132V314.472C699.132 310.632 698.407 307.219 696.956 304.232C695.591 301.245 693.585 298.899 690.94 297.192C688.295 295.4 685.137 294.504 681.468 294.504C677.799 294.504 674.641 295.4 671.996 297.192C669.436 298.899 667.473 301.245 666.108 304.232C664.743 307.219 664.06 310.632 664.06 314.472V314.856ZM752.206 353C747.427 353 743.545 352.104 740.558 350.312C737.571 348.435 735.395 345.832 734.03 342.504C732.665 339.091 731.982 335.08 731.982 330.472V296.68H721.998C721.145 296.68 720.419 296.424 719.822 295.912C719.31 295.315 719.054 294.589 719.054 293.736V289.384C719.054 288.531 719.31 287.848 719.822 287.336C720.419 286.739 721.145 286.44 721.998 286.44H731.982V265.064C731.982 264.211 732.238 263.528 732.75 263.016C733.347 262.419 734.073 262.12 734.926 262.12H740.942C741.795 262.12 742.478 262.419 742.99 263.016C743.587 263.528 743.886 264.211 743.886 265.064V286.44H759.758C760.611 286.44 761.294 286.739 761.806 287.336C762.403 287.848 762.702 288.531 762.702 289.384V293.736C762.702 294.589 762.403 295.315 761.806 295.912C761.294 296.424 760.611 296.68 759.758 296.68H743.886V329.576C743.886 333.587 744.569 336.744 745.934 339.048C747.299 341.352 749.731 342.504 753.23 342.504H761.038C761.891 342.504 762.574 342.803 763.086 343.4C763.683 343.912 763.982 344.595 763.982 345.448V350.056C763.982 350.909 763.683 351.635 763.086 352.232C762.574 352.744 761.891 353 761.038 353H752.206ZM779.166 353C778.313 353 777.587 352.744 776.99 352.232C776.478 351.635 776.222 350.909 776.222 350.056V289.384C776.222 288.531 776.478 287.848 776.99 287.336C777.587 286.739 778.313 286.44 779.166 286.44H785.31C786.163 286.44 786.846 286.739 787.358 287.336C787.87 287.848 788.126 288.531 788.126 289.384V350.056C788.126 350.909 787.87 351.635 787.358 352.232C786.846 352.744 786.163 353 785.31 353H779.166ZM778.142 274.024C777.289 274.024 776.563 273.768 775.966 273.256C775.454 272.659 775.198 271.933 775.198 271.08V264.168C775.198 263.315 775.454 262.632 775.966 262.12C776.563 261.523 777.289 261.224 778.142 261.224H786.206C787.059 261.224 787.742 261.523 788.254 262.12C788.851 262.632 789.15 263.315 789.15 264.168V271.08C789.15 271.933 788.851 272.659 788.254 273.256C787.742 273.768 787.059 274.024 786.206 274.024H778.142Z" fill="white"/>
<path d="M620.264 211.568C614.12 211.568 608.744 210.715 604.136 209.008C599.613 207.387 595.859 205.083 592.872 202.096C589.885 199.195 587.667 195.781 586.216 191.856C584.765 187.931 584.04 183.749 584.04 179.312C584.04 175.643 584.68 171.76 585.96 167.664C587.24 163.483 589.331 159.216 592.232 154.864C592.744 154.011 593.341 153.541 594.024 153.456C594.707 153.285 595.389 153.371 596.072 153.712L600.296 155.632C601.149 155.973 601.619 156.485 601.704 157.168C601.875 157.851 601.661 158.704 601.064 159.728C598.931 163.056 597.352 166.128 596.328 168.944C595.389 171.76 594.92 174.832 594.92 178.16C594.92 182.171 595.816 185.797 597.608 189.04C599.4 192.283 602.216 194.843 606.056 196.72C609.896 198.597 614.845 199.536 620.904 199.536H631.912C638.056 199.536 643.048 198.725 646.888 197.104C650.728 195.483 652.648 192.88 652.648 189.296C652.648 186.992 651.965 185.157 650.6 183.792C649.235 182.512 647.357 181.872 644.968 181.872H638.568C636.776 181.872 635.88 180.933 635.88 179.056V172.784C635.88 170.907 636.776 169.968 638.568 169.968H664.04C665.32 169.968 665.96 170.608 665.96 171.888V178.8C665.96 181.104 664.723 182.256 662.248 182.256H657.384L650.216 175.472C654.312 177.179 657.341 179.141 659.304 181.36C661.267 183.579 662.248 186.267 662.248 189.424C662.248 192.155 661.693 194.8 660.584 197.36C659.475 200.005 657.725 202.395 655.336 204.528C652.947 206.661 649.789 208.368 645.864 209.648C642.024 210.928 637.245 211.568 631.528 211.568H620.264ZM619.752 231.92C619.411 232.347 618.941 232.517 618.344 232.432C617.747 232.432 617.192 232.219 616.68 231.792L611.944 227.184C611.603 226.757 611.432 226.203 611.432 225.52C611.432 224.923 611.603 224.453 611.944 224.112L616.68 219.376C617.192 218.864 617.704 218.608 618.216 218.608C618.813 218.608 619.325 218.864 619.752 219.376L624.488 224.112C624.915 224.453 625.128 224.923 625.128 225.52C625.213 226.203 625.043 226.8 624.616 227.312L619.752 231.92ZM637.416 231.92C636.989 232.347 636.477 232.517 635.88 232.432C635.368 232.432 634.856 232.219 634.344 231.792L629.48 227.184C629.139 226.757 628.925 226.203 628.84 225.52C628.84 224.923 629.053 224.453 629.48 224.112L634.344 219.376C634.856 218.864 635.368 218.608 635.88 218.608C636.392 218.608 636.861 218.864 637.288 219.376L642.024 224.112C642.451 224.453 642.664 224.923 642.664 225.52C642.749 226.203 642.579 226.8 642.152 227.312L637.416 231.92ZM662.11 182.256C660.83 182.256 660.19 181.573 660.19 180.208V173.808C660.19 171.248 661.47 169.968 664.03 169.968H665.694C669.619 169.968 672.649 168.987 674.782 167.024C676.915 165.061 677.982 161.349 677.982 155.888V143.088C677.982 141.125 678.921 140.144 680.798 140.144H685.662C687.539 140.144 688.478 141.125 688.478 143.088V155.888C688.478 161.435 689.715 165.189 692.19 167.152C694.665 169.029 698.163 169.968 702.686 169.968H704.99C706.27 169.968 706.91 170.608 706.91 171.888V178.416C706.91 180.976 705.63 182.256 703.07 182.256C698.803 182.256 694.793 181.488 691.038 179.952C687.369 178.331 684.382 175.344 682.078 170.992C680.201 175.429 677.427 178.416 673.758 179.952C670.089 181.488 666.206 182.256 662.11 182.256ZM675.038 127.472C674.611 127.899 674.099 128.112 673.502 128.112C672.905 128.112 672.35 127.856 671.838 127.344L667.23 122.608C666.803 122.096 666.59 121.584 666.59 121.072C666.59 120.475 666.803 119.92 667.23 119.408L671.838 114.672C672.35 114.16 672.905 113.904 673.502 113.904C674.099 113.904 674.611 114.16 675.038 114.672L679.774 119.408C680.286 119.835 680.542 120.389 680.542 121.072C680.627 121.669 680.414 122.224 679.902 122.736L675.038 127.472ZM694.11 127.472C693.683 127.984 693.171 128.197 692.574 128.112C691.977 128.027 691.422 127.771 690.91 127.344L686.046 122.608C685.619 122.181 685.406 121.669 685.406 121.072C685.406 120.389 685.619 119.835 686.046 119.408L690.91 114.672C691.422 114.16 691.934 113.904 692.446 113.904C692.958 113.904 693.47 114.16 693.982 114.672L698.718 119.408C699.23 119.835 699.486 120.389 699.486 121.072C699.486 121.669 699.23 122.224 698.718 122.736L694.11 127.472ZM703.11 182.256C701.83 182.256 701.19 181.573 701.19 180.208V173.808C701.19 171.248 702.47 169.968 705.03 169.968C710.321 169.968 713.99 168.944 716.038 166.896C718.171 164.848 719.238 161.136 719.238 155.76V143.088C719.238 141.211 720.177 140.272 722.054 140.272H727.174C729.051 140.272 729.99 141.211 729.99 143.088V155.76C729.99 159.429 730.502 162.331 731.526 164.464C732.635 166.512 734.385 167.963 736.774 168.816C739.249 169.584 742.577 169.968 746.758 169.968C748.038 169.968 748.678 170.608 748.678 171.888V178.416C748.678 180.976 747.398 182.256 744.838 182.256C740.145 182.256 735.878 181.488 732.038 179.952C728.198 178.331 725.211 175.344 723.078 170.992C721.201 175.259 718.427 178.203 714.758 179.824C711.174 181.445 707.291 182.256 703.11 182.256ZM717.19 205.552C716.763 205.893 716.251 206.021 715.654 205.936C715.057 205.936 714.545 205.765 714.118 205.424L709.382 200.688C708.955 200.261 708.742 199.749 708.742 199.152C708.742 198.555 708.955 198.043 709.382 197.616L714.118 192.88C714.545 192.453 715.014 192.24 715.526 192.24C716.123 192.24 716.678 192.453 717.19 192.88L721.798 197.616C722.31 198.043 722.566 198.555 722.566 199.152C722.651 199.749 722.438 200.304 721.926 200.816L717.19 205.552ZM734.726 205.552C734.385 205.893 733.915 206.021 733.318 205.936C732.721 205.936 732.209 205.765 731.782 205.424L726.918 200.688C726.491 200.261 726.278 199.749 726.278 199.152C726.278 198.555 726.491 198.043 726.918 197.616L731.782 192.88C732.209 192.453 732.678 192.24 733.19 192.24C733.787 192.24 734.257 192.453 734.598 192.88L739.334 197.616C739.846 198.043 740.102 198.555 740.102 199.152C740.187 199.749 739.974 200.304 739.462 200.816L734.726 205.552ZM745.116 182.256C744.348 182.256 743.793 182 743.452 181.488C743.111 180.976 742.94 180.421 742.94 179.824V172.784C742.94 171.589 743.281 170.821 743.964 170.48C744.647 170.139 745.585 169.968 746.78 169.968H748.316C752.497 169.968 755.441 168.859 757.148 166.64C758.94 164.421 759.836 161.093 759.836 156.656C759.836 155.12 759.751 153.712 759.58 152.432C759.495 151.067 759.239 149.616 758.812 148.08L756.636 138.352C756.38 137.413 756.465 136.688 756.892 136.176C757.319 135.664 758.001 135.28 758.94 135.024L763.548 134C765.511 133.573 766.705 134.341 767.132 136.304L769.436 147.568C769.863 149.275 770.161 151.237 770.332 153.456C770.588 155.675 770.716 157.339 770.716 158.448C770.716 165.616 769.009 171.376 765.596 175.728C762.268 180.08 757.276 182.256 750.62 182.256H745.116ZM757.404 205.296C756.977 205.637 756.465 205.765 755.868 205.68C755.271 205.68 754.716 205.509 754.204 205.168L749.468 200.304C749.041 199.877 748.828 199.365 748.828 198.768C748.828 198.171 749.041 197.659 749.468 197.232L754.204 192.368C754.716 191.941 755.228 191.728 755.74 191.728C756.337 191.728 756.849 191.941 757.276 192.368L762.012 197.232C762.524 197.659 762.78 198.171 762.78 198.768C762.865 199.365 762.652 199.92 762.14 200.432L757.404 205.296Z" fill="white"/>
<defs>
<linearGradient id="paint0_linear_26_24" x1="204.137" y1="203.445" x2="204.137" y2="243.695" gradientUnits="userSpaceOnUse">
<stop stop-color="#FF9100"/>
</linearGradient>
<linearGradient id="paint1_linear_26_24" x1="204.137" y1="251.745" x2="204.137" y2="291.995" gradientUnits="userSpaceOnUse">
<stop stop-color="#FF9100"/>
<stop offset="1" stop-color="#FCDBBD"/>
</linearGradient>
<linearGradient id="paint2_linear_26_24" x1="256.665" y1="203.445" x2="256.665" y2="243.695" gradientUnits="userSpaceOnUse">
<stop stop-color="#FF9100"/>
</linearGradient>
<linearGradient id="paint3_linear_26_24" x1="256.665" y1="251.745" x2="256.665" y2="291.995" gradientUnits="userSpaceOnUse">
<stop stop-color="#FF9100"/>
<stop offset="1" stop-color="#FCDBBD"/>
</linearGradient>
</defs>
</svg>
