<svg width="461" height="447" viewBox="0 0 461 447" fill="none" xmlns="http://www.w3.org/2000/svg">
<rect width="461" height="447" rx="109" fill="#375171"/>
<path d="M237.58 76.7236L364.314 182.539L369.184 186.605L401 213.17L400.994 213.177C403.762 215.389 405.592 218.481 406.085 221.795C406.586 225.158 405.671 228.474 403.542 231.012C401.412 233.55 398.241 235.103 394.728 235.329C391.287 235.551 387.793 234.481 384.984 232.353L384.978 232.36L368.385 218.506V345.445C368.385 362.842 354.282 376.945 336.885 376.945H122.25C104.853 376.945 90.7497 362.842 90.7495 345.445V219.771L75.8735 232.32L75.8569 232.3C73.1357 234.588 69.7864 235.857 66.4751 235.839C62.9961 235.82 59.8452 234.384 57.7153 231.846C55.5855 229.307 54.6506 225.875 55.1177 222.304C55.5595 218.926 57.2213 215.686 59.7612 213.22L59.7544 213.211L59.8901 213.096C59.9938 212.997 60.099 212.9 60.2056 212.804L60.2183 212.818L96.0659 182.58L98.2114 180.77V136.527H89.2114C85.8978 136.527 83.2114 133.841 83.2114 130.527V117.527C83.2114 114.214 85.8978 111.527 89.2114 111.527H178.211C178.828 111.527 179.422 111.62 179.982 111.793L221.508 76.7637L229.527 70L237.58 76.7236ZM115.75 198.683V345.445C115.75 349.035 118.66 351.945 122.25 351.945H336.885C340.475 351.945 343.385 349.035 343.385 345.445V197.633L229.609 102.637L115.75 198.683Z" fill="white"/>
<rect x="183.293" y="203.445" width="41.6891" height="40.2499" rx="6" fill="url(#paint0_linear_23_3)"/>
<rect x="183.293" y="251.745" width="41.6891" height="40.2499" rx="6" fill="url(#paint1_linear_23_3)"/>
<rect x="235.821" y="203.445" width="41.6891" height="40.2499" rx="6" fill="url(#paint2_linear_23_3)"/>
<rect x="235.821" y="251.745" width="41.6891" height="40.2499" rx="6" fill="url(#paint3_linear_23_3)"/>
<defs>
<linearGradient id="paint0_linear_23_3" x1="204.138" y1="203.445" x2="204.138" y2="243.695" gradientUnits="userSpaceOnUse">
<stop stop-color="#FF9100"/>
</linearGradient>
<linearGradient id="paint1_linear_23_3" x1="204.138" y1="251.745" x2="204.138" y2="291.995" gradientUnits="userSpaceOnUse">
<stop stop-color="#FF9100"/>
<stop offset="1" stop-color="#FCDBBD"/>
</linearGradient>
<linearGradient id="paint2_linear_23_3" x1="256.666" y1="203.445" x2="256.666" y2="243.695" gradientUnits="userSpaceOnUse">
<stop stop-color="#FF9100"/>
</linearGradient>
<linearGradient id="paint3_linear_23_3" x1="256.666" y1="251.745" x2="256.666" y2="291.995" gradientUnits="userSpaceOnUse">
<stop stop-color="#FF9100"/>
<stop offset="1" stop-color="#FCDBBD"/>
</linearGradient>
</defs>
</svg>
